<?xml version="1.0" standalone="no"?>
<!DOCTYPE svg PUBLIC "-//W3C//DTD SVG 20010904//EN"
 "http://www.w3.org/TR/2001/REC-SVG-20010904/DTD/svg10.dtd">
<svg version="1.0" xmlns="http://www.w3.org/2000/svg"
 width="356.000000pt" height="229.000000pt" viewBox="0 0 356.000000 229.000000"
 preserveAspectRatio="xMidYMid meet">

<g transform="translate(0.000000,229.000000) scale(0.100000,-0.100000)"
fill="#000000" stroke="none">
<path d="M1535 1904 c-104 -16 -255 -51 -344 -80 -334 -109 -650 -348 -850
-642 l-40 -59 36 -54 c88 -132 298 -352 348 -365 11 -3 25 -15 30 -27 12 -26
55 -36 55 -13 0 9 5 16 10 16 6 0 10 -7 10 -15 0 -9 9 -15 25 -15 14 0 25 -4
25 -10 0 -5 -9 -10 -20 -10 -27 0 -25 -14 5 -34 30 -20 35 -20 35 -1 0 23 37
55 65 55 55 0 85 -70 46 -109 -19 -19 -18 -19 43 -49 33 -16 110 -46 170 -66
360 -122 717 -122 1080 -1 191 63 259 99 226 120 -5 3 -10 22 -10 40 0 65 83
86 114 30 6 -11 12 -22 13 -24 1 -2 18 10 38 28 20 17 43 31 52 31 50 0 314
265 422 423 l33 49 -46 68 c-198 290 -512 525 -848 634 -191 63 -281 77 -498
81 -107 2 -208 1 -225 -1z m343 -179 c140 -33 291 -142 374 -269 133 -205 121
-505 -28 -700 -19 -25 -34 -54 -32 -63 2 -13 -3 -17 -17 -16 -10 1 -34 -11
-52 -27 -94 -83 -219 -130 -363 -137 -190 -9 -320 39 -458 171 -66 64 -91 96
-123 160 -123 250 -77 529 118 722 47 47 71 78 67 87 -3 8 -1 18 5 22 6 3 14
0 17 -8 5 -13 15 -11 62 11 134 61 294 79 430 47z m-808 -168 c-40 -60 -75
-141 -102 -235 -31 -109 -31 -286 0 -394 27 -96 73 -195 118 -254 19 -24 34
-46 34 -49 0 -3 -11 -3 -25 1 -31 8 -55 -10 -55 -41 0 -33 23 -48 62 -40 29 7
31 6 19 -9 -17 -20 -50 -21 -79 0 -28 20 -29 67 -1 95 11 11 19 22 17 23 -2 1
-37 22 -78 45 -106 60 -184 118 -275 203 -90 84 -195 203 -195 221 0 21 135
172 222 247 46 39 112 91 148 115 73 48 213 126 218 121 1 -2 -11 -24 -28 -49z
m1358 14 c91 -46 230 -143 311 -218 88 -80 201 -210 201 -230 0 -26 -143 -184
-240 -265 -52 -44 -142 -107 -199 -141 -89 -53 -101 -62 -78 -65 33 -4 34 -14
5 -27 -34 -15 -27 -85 7 -85 8 0 15 -4 15 -10 0 -5 -9 -10 -19 -10 -27 0 -51
37 -51 77 0 26 -4 33 -20 33 -11 0 -20 5 -20 10 0 6 4 10 10 10 17 0 92 138
121 224 73 211 48 450 -66 651 -24 41 -41 75 -39 75 3 0 31 -13 62 -29z
m-1248 -916 c0 -50 15 -58 45 -25 10 11 26 20 37 20 15 0 12 -6 -14 -29 l-33
-30 34 -35 c23 -24 30 -36 20 -36 -8 0 -28 13 -44 30 -31 33 -45 31 -45 -6 0
-13 -4 -24 -10 -24 -6 0 -10 37 -10 90 0 53 4 90 10 90 6 0 10 -20 10 -45z
m1140 35 c0 -5 -16 -10 -35 -10 -51 0 -48 -31 5 -55 51 -23 64 -60 30 -87 -12
-10 -32 -18 -44 -18 -28 0 -63 24 -48 34 6 3 13 2 17 -4 10 -17 54 -11 64 9 8
14 6 22 -8 35 -9 9 -23 16 -29 16 -14 0 -52 36 -52 49 0 5 7 17 16 25 17 18
84 22 84 6z m-130 -105 c0 -37 -4 -65 -10 -65 -6 0 -10 28 -10 65 0 37 4 65
10 65 6 0 10 -28 10 -65z"/>
<path d="M1638 1593 c-25 -4 -28 -8 -28 -44 0 -32 3 -39 20 -39 11 0 20 -4 20
-10 0 -16 -37 -12 -54 6 -9 8 -16 27 -16 40 0 21 -4 25 -22 22 -15 -2 -24 -11
-26 -26 -4 -30 -45 -56 -76 -48 -19 5 -33 -4 -75 -49 -171 -181 -170 -455 2
-641 229 -248 628 -185 774 122 34 72 38 88 41 179 3 83 0 111 -18 164 -25 76
-73 152 -128 205 -33 31 -44 37 -55 28 -16 -14 -27 -6 -27 18 0 16 -77 60
-105 60 -20 0 -20 -44 0 -60 8 -7 27 -9 47 -5 31 6 32 5 14 -10 -27 -21 -48
-19 -81 6 -21 17 -26 28 -21 50 4 24 -7 39 -29 39 -2 0 -1 -17 2 -39 4 -32 2
-41 -18 -55 -13 -9 -33 -16 -44 -16 -11 0 -31 7 -44 16 -20 14 -22 23 -18 55
3 22 2 38 -1 38 -4 -1 -19 -4 -34 -6z m300 -203 c118 -73 84 -250 -54 -276
-45 -8 -118 26 -144 68 -17 26 -20 45 -17 92 3 55 7 62 45 96 33 30 49 37 89
38 33 2 58 -4 81 -18z"/>
<path d="M1702 1578 c-27 -27 -6 -68 35 -68 31 0 52 42 33 65 -15 18 -51 20
-68 3z"/>
<path d="M1474 1525 c-16 -12 -16 -14 -3 -15 9 0 22 7 29 15 16 19 0 19 -26 0z"/>
<path d="M896 614 c-23 -22 -17 -45 16 -64 25 -13 29 -13 45 2 13 14 15 23 7
45 -11 33 -44 41 -68 17z"/>
<path d="M2512 618 c-17 -17 -15 -53 3 -68 12 -10 20 -9 40 4 38 25 28 76 -15
76 -9 0 -21 -5 -28 -12z"/>
</g>
</svg>
